<svg width="292" height="52" viewBox="0 0 292 52" fill="none" xmlns="http://www.w3.org/2000/svg">
<g clip-path="url(#clip0_206_638)">
<path d="M285.896 41.6937C283.058 41.6937 280.776 39.4117 280.776 36.5731C280.776 33.6789 283.058 31.3413 285.896 31.3413C288.735 31.3413 291.072 33.6789 291.072 36.5731C291.072 39.4117 288.735 41.6937 285.896 41.6937Z" fill="black"/>
<path d="M282.58 9.35636C283.304 9.3007 283.582 9.52334 283.582 9.91294C283.582 10.3582 283.304 10.6365 282.747 10.8035C281.189 11.0818 280.131 12.8629 279.185 15.3675C278.072 18.0947 271.115 35.7939 269.167 40.5805C266.885 46.1463 264.436 51.3782 258.647 51.7678C252.302 52.3244 250.632 46.8699 253.861 45.2558C256.699 43.8087 257.979 46.035 260.094 46.202C263.044 46.4803 264.77 44.1426 265.994 41.4154L253.972 14.3656C252.914 11.9167 252.692 11.3044 251.634 10.8592C251.022 10.5809 250.632 10.3582 250.632 9.91294C250.632 9.52334 250.966 9.3007 251.69 9.35636C252.747 9.41202 254.64 9.52334 257.367 9.52334C260.15 9.52334 261.987 9.41202 263.044 9.35636C263.823 9.3007 264.102 9.52334 264.102 9.91294C264.102 10.4139 263.712 10.5809 263.1 10.8592C262.042 11.2488 262.098 12.1393 262.989 14.3656L269.723 31.9535C272.45 25.1633 275.679 17.1485 276.346 15.3675C277.293 13.0298 277.571 11.1931 275.679 10.8592C275.066 10.6922 274.677 10.4139 274.677 9.9686C274.677 9.57899 274.955 9.35636 275.734 9.35636C276.68 9.41202 278.294 9.52334 279.352 9.52334C280.632 9.52334 281.69 9.41202 282.58 9.35636Z" fill="black"/>
<path d="M243.138 8.63281C252.21 8.63281 251.765 18.5956 246.311 18.4843C242.025 18.4843 244.418 12.8629 239.799 12.8629C235.903 12.8629 235.847 18.4287 235.847 21.1559V36.0722C235.847 38.2429 236.292 39.2447 237.739 39.6343C238.407 39.857 238.797 40.0239 238.797 40.4692C238.797 40.9145 238.463 41.1371 237.684 41.0815C236.626 41.0258 234.678 40.9145 231.895 40.9145C229.168 40.9145 227.276 41.0258 226.274 41.0815C225.55 41.1371 225.216 40.9145 225.216 40.4692C225.216 40.0239 225.606 39.857 226.218 39.5787C227.276 39.1891 227.443 38.0759 227.443 36.0722V17.5381C227.443 15.5901 227.276 14.4769 226.218 14.0317C225.662 13.809 225.216 13.5864 225.216 13.0855C225.216 12.6959 225.495 12.4176 225.996 12.3063C227.61 11.9723 230.838 11.1375 234.289 9.35636C234.901 9.02242 235.29 9.24505 235.346 9.91294L235.736 14.4213V14.5883C236.849 11.3044 238.964 8.63281 243.138 8.63281Z" fill="black"/>
<path d="M206.584 8.63281C216.491 8.63281 222.836 16.091 222.836 25.2189C222.836 34.4025 216.491 41.805 206.584 41.805C196.677 41.805 190.387 34.4025 190.387 25.2189C190.443 16.091 196.677 8.63281 206.584 8.63281ZM203.801 10.5252C198.625 11.5271 197.734 18.8183 199.126 26.4991C200.462 34.2912 204.246 40.8032 209.478 39.9126C214.599 38.9108 215.434 31.6196 214.098 23.9388C212.762 16.1467 208.977 9.63465 203.801 10.5252Z" fill="black"/>
<path d="M188.83 37.6306C189.108 37.8533 189.108 38.2985 188.774 38.8551C187.606 40.4135 185.88 41.6937 182.429 41.6937C177.587 41.6937 175.194 39.356 175.194 34.3468V11.6384H173.246C172.522 11.6384 172.355 11.3044 172.355 10.4696C172.355 9.63471 172.522 9.35642 173.246 9.35642H173.969C177.309 9.35642 180.593 6.51786 181.65 3.17838C181.817 2.73312 182.151 2.45483 182.652 2.45483C183.153 2.45483 183.598 2.6218 183.598 3.34536V9.35642H188.051C188.663 9.35642 188.886 9.63471 188.886 10.4696C188.886 11.3044 188.663 11.6384 188.051 11.6384H183.598V34.7364C183.598 36.9628 184.099 38.0759 185.324 38.2985C186.325 38.4655 187.105 37.9646 187.606 37.7976C188.218 37.4637 188.552 37.3524 188.83 37.6306Z" fill="black"/>
<path d="M157.223 8.63281C171.138 8.63281 170.859 17.4268 166.574 17.4268C160.841 17.4268 164.125 10.4139 157.223 10.1356C151.769 9.85728 150.377 14.31 151.936 16.8146C156.166 23.2152 171.694 21.8794 170.971 32.2318C170.748 36.2949 167.854 41.805 156.778 41.805C142.084 41.805 141.639 31.2856 146.426 31.1187C151.88 30.9517 148.429 40.3579 156.778 40.3579C161.231 40.3579 163.735 36.9628 162.733 33.4563C160.618 26.833 144.255 28.3914 144.255 18.2617C144.255 12.3063 149.709 8.63281 157.223 8.63281Z" fill="black"/>
<path d="M127.017 8.6328C138.817 8.52149 141.544 18.0947 140.932 22.1577C140.821 22.8256 140.487 23.1596 139.819 23.1596H119.838C119.893 23.9388 120.005 24.718 120.116 25.4972C121.674 35.7939 131.025 39.356 138.873 34.9591C139.485 34.6251 139.874 34.6251 140.153 34.8477C140.431 35.126 140.431 35.5713 140.041 36.1279C138.594 37.9646 134.865 41.805 127.964 41.805C118.836 41.805 112.268 35.5156 111.6 26.4434C110.877 16.8702 117.222 8.74412 127.017 8.6328ZM119.838 20.8776H130.023C132.973 20.8776 133.474 20.3767 133.362 17.8164C133.196 14.4769 131.192 10.0799 127.017 10.0799C122.787 10.0799 120.116 15.1448 119.838 20.8776Z" fill="black"/>
<path d="M103.526 8.63281C112.598 8.63281 112.153 18.5956 106.698 18.4843C102.413 18.4843 104.806 12.8629 100.186 12.8629C96.2903 12.8629 96.2347 18.4287 96.2347 21.1559V36.0722C96.2347 38.2429 96.6799 39.2447 98.127 39.6343C98.7949 39.857 99.1845 40.0239 99.1845 40.4692C99.1845 40.9145 98.8506 41.1371 98.0714 41.0815C97.0139 41.0258 95.0659 40.9145 92.283 40.9145C89.5557 40.9145 87.6633 41.0258 86.6615 41.0815C85.9379 41.1371 85.604 40.9145 85.604 40.4692C85.604 40.0239 85.9936 39.857 86.6058 39.5787C87.6633 39.1891 87.8303 38.0759 87.8303 36.0722V17.5381C87.8303 15.5901 87.6633 14.4769 86.6058 14.0317C86.0493 13.809 85.604 13.5864 85.604 13.0855C85.604 12.6959 85.8823 12.4176 86.3832 12.3063C87.9973 11.9723 91.2255 11.1375 94.6762 9.35636C95.2885 9.02242 95.6781 9.24505 95.7338 9.91294L96.1234 14.4213V14.5883C97.2365 11.3044 99.3515 8.63281 103.526 8.63281Z" fill="black"/>
<path d="M68.9657 8.6328C80.7652 8.52149 83.4925 18.0947 82.8802 22.1577C82.7689 22.8256 82.435 23.1596 81.7671 23.1596H61.7859C61.8415 23.9388 61.9528 24.718 62.0641 25.4972C63.6226 35.7939 72.9731 39.356 80.8209 34.9591C81.4331 34.6251 81.8227 34.6251 82.101 34.8477C82.3793 35.126 82.3793 35.5713 81.9897 36.1279C80.5426 37.9646 76.8135 41.805 69.9119 41.805C60.784 41.805 54.2164 35.5156 53.5485 26.4434C52.8249 16.8702 59.1699 8.74412 68.9657 8.6328ZM61.7859 20.8776H71.9713C74.9211 20.8776 75.4221 20.3767 75.3107 17.8164C75.1438 14.4769 73.1401 10.0799 68.9657 10.0799C64.7357 10.0799 62.0641 15.1448 61.7859 20.8776Z" fill="black"/>
<path d="M50.436 39.5787C51.0482 39.857 51.3822 40.0239 51.3822 40.4692C51.3822 40.9145 51.0482 41.1371 50.3803 41.0814C49.4341 41.0258 47.6531 40.9145 45.0371 40.9145C42.3656 40.9145 40.6402 41.0258 39.694 41.0814C38.9704 41.1371 38.6365 40.9145 38.6365 40.4692C38.6365 40.0239 39.0261 39.857 39.5827 39.5787C40.6958 39.1891 40.8071 38.0203 40.8071 36.0722V8.35456C40.8071 6.46218 40.6958 5.29337 39.6383 4.90376C39.0817 4.62547 38.6365 4.40284 38.6365 3.95758C38.6365 3.45665 38.9704 3.17836 39.5827 3.01139C41.1411 2.7331 44.9258 1.84257 48.2096 0.117175C48.7662 -0.161114 49.2115 0.0615179 49.2115 0.729415V36.0722C49.2115 38.0203 49.3785 39.1891 50.436 39.5787Z" fill="black"/>
<path d="M20.1551 1.45297C11.1385 1.45297 7.68767 13.4194 9.85833 22.5473C12.3629 34.7921 25.1643 39.9126 34.7931 32.3988C35.294 32.0092 35.7949 31.8422 36.1845 32.1205C36.4628 32.3431 36.4072 32.7327 36.1289 33.345C34.9601 35.7383 29.7282 41.805 20.6003 41.805C9.41306 41.805 0.897395 33.7346 0.0625249 22.1577C-0.772345 11.4714 6.79714 0.00585938 20.1551 0.00585938C37.409 0.00585938 39.524 14.1986 33.012 14.6996C25.053 15.3118 30.9527 1.45297 20.1551 1.45297Z" fill="black"/>
</g>
<defs>
<clipPath id="clip0_206_638">
<rect width="292" height="52" fill="white"/>
</clipPath>
</defs>
</svg>
