<svg width="262" height="55" viewBox="0 0 262 55" fill="none" xmlns="http://www.w3.org/2000/svg">
<g clip-path="url(#clip0_206_650)">
<path d="M71.9369 20.4137C68.4863 23.7112 66.7478 27.866 66.7478 32.8386C66.7478 37.8113 68.4726 41.9661 71.9369 45.2634C75.3866 48.561 79.7204 50.2229 84.9367 50.2229C87.0617 50.2229 89.0909 49.9328 90.9955 49.3524C93.7968 48.495 95.6458 45.9625 95.6458 43.1532C95.6458 43.1532 95.6046 43.1004 95.5769 43.1268C92.5271 45.6856 88.98 46.965 84.9367 46.965C80.631 46.965 77.0843 45.6329 74.3105 42.9817C71.5363 40.3305 70.1424 36.9406 70.1424 32.8255C70.1424 28.7102 71.5363 25.2412 74.3105 22.59C77.029 19.9917 80.5757 18.6859 84.9367 18.6859C86.855 18.6859 88.8971 19.0419 91.0502 19.741L93.4238 20.9546L95.6322 22.3394C95.6322 19.4508 93.6448 16.8657 90.7193 16.1006C88.9941 15.6522 87.0617 15.428 84.9226 15.428C79.7066 15.428 75.3731 17.0767 71.9229 20.3873L71.9369 20.4137Z" fill="black"/>
<path d="M124.06 15.4558C118.967 15.4558 114.689 17.1573 111.226 20.5734C107.707 23.937 105.954 28.0127 105.954 32.8402C105.954 37.6676 107.707 41.8224 111.226 45.1859C114.676 48.4833 118.954 50.1452 124.06 50.1452C129.166 50.1452 133.458 48.4702 136.977 45.1069C140.496 41.7433 142.166 37.7204 142.166 32.8402C142.166 27.9598 140.413 23.8577 136.894 20.4944C133.375 17.1441 129.097 15.4558 124.06 15.4558ZM135.983 41.1366C132.892 44.9749 128.917 46.8873 124.074 46.8873C120.044 46.8873 116.594 45.5025 113.71 42.7458C110.825 39.989 109.377 36.6784 109.377 32.8402C109.377 29.0019 110.853 25.744 113.793 22.9345C116.676 20.1251 120.113 18.7137 124.074 18.7137C128.034 18.7137 131.692 20.0987 134.521 22.8554C137.764 25.9549 139.144 29.8592 138.688 34.5812C138.454 36.9555 137.515 39.2505 135.983 41.1497V41.1366Z" fill="black"/>
<path d="M211.039 21.7723C211.039 21.7723 210.997 21.825 210.969 21.7987C207.244 17.6307 202.592 15.5466 197.016 15.5466C191.924 15.5466 187.619 17.2218 184.1 20.5853C180.581 23.9486 178.911 27.9716 178.911 32.8518C178.911 37.732 180.663 41.834 184.183 45.1976C187.633 48.4951 191.911 50.1571 197.016 50.1571C202.647 50.1571 207.299 48.0729 210.969 43.9049C210.997 43.8787 211.039 43.9049 211.039 43.9312V46.3055C211.039 48.1258 212.584 49.6031 214.489 49.6031C214.489 49.6031 214.531 49.5898 214.531 49.5634V19.3189C214.531 17.4988 212.983 16.0215 211.079 16.0215C211.079 16.0215 211.039 16.0347 211.039 16.0611V21.7723ZM208.748 41.346C205.683 45.0394 201.765 46.8859 197.003 46.8859C192.972 46.8859 189.523 45.501 186.639 42.7442C183.286 39.539 181.878 35.5953 182.416 30.926C182.692 28.5255 183.686 26.2305 185.259 24.3311C188.323 20.6247 192.242 18.7782 197.016 18.7782C201.032 18.7782 204.497 20.1631 207.381 22.9197C210.735 26.1249 212.142 30.0688 211.605 34.7379C211.328 37.1385 210.335 39.4468 208.761 41.346H208.748Z" fill="black"/>
<path d="M258.509 16.0611V21.7723C258.509 21.7723 258.469 21.825 258.44 21.7987C254.713 17.6307 250.064 15.5466 244.488 15.5466C239.396 15.5466 235.09 17.2218 231.57 20.5853C228.052 23.9486 226.381 27.9716 226.381 32.8518C226.381 37.732 228.134 41.834 231.654 45.1976C235.103 48.4951 239.383 50.1571 244.488 50.1571C250.119 50.1571 254.768 48.0729 258.44 43.9049C258.469 43.8787 258.509 43.9049 258.509 43.9312V46.3055C258.509 48.1258 260.056 49.6031 261.958 49.6031C261.958 49.6031 262 49.5898 262 49.5634V19.3189C262 17.4988 260.455 16.0215 258.55 16.0215C258.55 16.0215 258.509 16.0347 258.509 16.0611ZM256.232 41.346C253.168 45.0394 249.249 46.8859 244.488 46.8859C240.459 46.8859 237.009 45.501 234.124 42.7442C230.771 39.539 229.362 35.5953 229.901 30.926C230.177 28.5255 231.169 26.2173 232.743 24.3311C235.808 20.638 239.726 18.7782 244.488 18.7782C248.503 18.7782 251.968 20.1631 254.852 22.9197C258.205 26.1249 259.614 30.0688 259.076 34.7379C258.799 37.1385 257.806 39.4468 256.232 41.346Z" fill="black"/>
<path d="M171.685 17.9487C170.746 19.3337 168.911 19.8086 167.31 19.1886C167.241 19.1622 167.186 19.1359 167.117 19.1226C166.137 18.7665 165.102 18.5819 164.026 18.5819C163.101 18.5819 162.231 18.8588 161.417 19.3997C160.603 19.9404 159.899 20.6131 159.306 21.4176C158.712 22.2223 158.229 23.1192 157.884 24.1084C157.526 25.0977 157.36 26.0078 157.36 26.8387V50.1585H154.02V19.0435C154.02 17.276 155.511 15.8515 157.36 15.8515V20.2042C158.064 19.0171 158.988 17.9224 160.134 16.9331C161.279 15.9439 162.521 15.4558 163.874 15.4558C165.558 15.4558 166.937 15.6405 168.028 15.9966C169.118 16.3659 170.332 17.0122 171.699 17.9356L171.685 17.9487Z" fill="black"/>
<path d="M20.192 37.1044C19.6414 39.7053 20.4747 41.9967 22.1308 43.854C11.8559 42.96 7.66603 40.4237 5.75857 32.7988C3.42309 23.5063 6.94074 10.7593 19.7008 5.77152C23.1856 4.40729 27.1291 6.416 28.0127 9.93502L31.1354 22.382L31.3731 23.3468C25.0528 26.2737 21.7932 29.543 20.192 37.1044Z" fill="black"/>
<path d="M34.6135 49.1179C29.955 48.8596 24.9092 46.9299 22.1489 43.8013C22.4973 43.8463 22.8577 43.8641 23.219 43.8948C25.1629 44.041 27.1658 44.0511 29.2127 43.9128C33.0052 43.6678 35.6474 40.2225 34.7464 36.6625L31.3996 23.2808C31.5999 23.189 31.8002 23.0974 32.0142 23.0049C42.5849 18.3071 46.3139 28.1167 48.498 35.7298C50.4766 42.6272 46.5521 49.7923 34.6135 49.1179Z" fill="black"/>
</g>
<defs>
<clipPath id="clip0_206_650">
<rect width="262" height="55" fill="white"/>
</clipPath>
</defs>
</svg>
