<svg width="303" height="97" viewBox="0 0 303 97" fill="none" xmlns="http://www.w3.org/2000/svg">
<g clip-path="url(#clip0_206_658)">
<path d="M8.41874 37.7926H12.0337C18.3108 37.7926 20.0958 33.9026 20.0958 29.7318C20.0958 28.0673 19.6987 25.9578 18.4924 24.2963C17.5122 22.9839 15.8197 21.5996 12.0745 21.5996H8.41874V37.7926ZM0 15.0086H10.9164C14.6134 15.0086 21.2095 15.0086 25.4893 20.4849C27.7608 23.2644 28.5182 26.4025 28.5182 29.6194C28.5182 37.6318 24.0601 44.3767 11.54 44.3767H0V15.0086Z" fill="black"/>
<path d="M39.2564 15.1572V32.7208C39.2564 34.6865 39.3899 38.2658 43.4913 38.2658C47.6375 38.2658 47.6375 35.0457 47.6375 32.7208V15.1572H55.9769V32.7208C55.9769 37.6029 54.7847 39.7561 52.7152 41.6362C50.5979 43.5714 47.6375 44.7881 43.5806 44.7881C41.1989 44.7881 36.8751 44.2721 34.182 41.6807C31.4918 39.0487 30.9197 37.0077 30.9197 32.7208V15.1572H39.2564Z" fill="black"/>
<path d="M67.7783 34.1644H74.6888L71.3003 24.1246H71.1661L67.7783 34.1644ZM65.4616 40.1161L63.7243 44.3655H54.6787L67.9151 14.9937H74.5553L87.6574 44.3655H78.5161L76.9126 40.1161H65.4616Z" fill="black"/>
<path d="M88.2549 14.9922H95.5187L108.204 33.4485V14.9922H116.057V44.3672H108.751L96.2005 26.502V26.5432V44.3672H88.2549V14.9922Z" fill="black"/>
<path d="M120.33 14.9922H142.05V21.5796H128.4V26.147H141.739V32.734H128.4V37.7795H142.05V44.3672H120.33V14.9922Z" fill="black"/>
<path d="M163.639 15.3851H163.636C162.532 15.9185 161.574 16.5712 160.789 17.3301C159.997 18.1094 159.373 18.9196 158.935 19.7368C158.935 19.74 158.907 19.8052 158.884 19.863V15.269H148.056V17.1864H152.37V41.9772H148.056V44.3018H165.14V41.9772H159.02V27.4316C159.02 25.7602 159.257 24.2526 159.719 22.9464C160.196 21.6508 160.789 20.5233 161.477 19.6033C162.166 18.6973 162.906 18.0068 163.683 17.5488C164.448 17.0977 165.167 16.8655 165.812 16.8655C167.525 16.8655 167.741 17.6616 167.741 18.359L167.623 19.4701L167.343 20.1777C167.343 20.1777 167.35 20.1741 167.357 20.1675C167.315 20.2287 167.237 20.3997 167.011 20.8956L166.829 22.0034C166.829 23.0425 167.456 24.266 170.451 24.266C171.486 24.266 172.411 24.003 173.199 23.4903C174.055 22.933 174.491 21.863 174.491 20.3076C174.491 19.6171 174.361 18.9229 174.103 18.2393C173.84 17.5419 173.415 16.9131 172.85 16.3831C172.273 15.8602 171.554 15.4226 170.705 15.0908C169.852 14.756 168.848 14.5851 167.699 14.5851C166.141 14.5851 164.771 14.855 163.639 15.3851Z" fill="black"/>
<path d="M184.716 19.7347C185.23 18.8629 185.936 18.1586 186.814 17.6423C187.687 17.1293 188.824 16.8735 190.191 16.8735C190.941 16.8735 191.674 16.9791 192.343 17.1912C192.97 17.3931 193.505 17.7348 193.937 18.1997C194.378 18.6782 194.738 19.345 194.999 20.1858C195.265 21.0645 195.403 22.1959 195.403 23.5461V25.1149C195.403 25.1149 195.318 26.0758 195.303 26.2093H183.03C183.14 24.9239 183.288 23.8437 183.496 22.9068C183.77 21.7106 184.184 20.6406 184.716 19.7347ZM184.456 16.2235C182.608 17.0646 180.981 18.1859 179.621 19.5636C178.247 20.9415 177.153 22.5445 176.37 24.3254C175.577 26.1103 175.18 27.9833 175.18 29.8839C175.18 32.0686 175.567 34.0853 176.332 35.8834C177.095 37.6712 178.192 39.2337 179.594 40.5359C180.992 41.8315 182.67 42.8432 184.586 43.5338C186.504 44.2175 188.605 44.5696 190.825 44.5696C193.073 44.5696 194.947 44.2276 196.393 43.5512C197.812 42.8877 198.974 42.0913 199.829 41.182C200.672 40.2863 201.297 39.3702 201.69 38.461L202.688 35.8491L202.039 35.7706L200.611 35.4868L199.662 37.8352C199.337 38.5735 198.833 39.312 198.165 40.0367C197.49 40.7582 196.564 41.3767 195.403 41.8827C194.241 42.3888 192.723 42.6453 190.894 42.6453C189.095 42.6453 187.653 42.2757 186.604 41.5546C185.539 40.8262 184.716 39.8759 184.171 38.7444C183.606 37.5856 183.235 36.273 183.072 34.8268C182.9 33.3435 182.814 31.9042 182.814 30.5537C182.814 30.5537 182.848 28.2634 182.852 28.1335H203.037V27.6071C203.037 25.2521 202.609 23.2383 201.766 21.6146C200.926 20.0148 199.864 18.7022 198.613 17.721C197.363 16.7503 195.995 16.0357 194.533 15.6017C193.083 15.1709 191.706 14.9522 190.448 14.9522C188.325 14.9522 186.306 15.383 184.456 16.2235Z" fill="black"/>
<path d="M278.788 19.7347C279.306 18.8629 280.012 18.1586 280.886 17.6423C281.763 17.1293 282.898 16.8735 284.264 16.8735C285.018 16.8735 285.744 16.9791 286.419 17.1912C287.043 17.3931 287.577 17.7348 288.006 18.1997C288.454 18.6818 288.814 19.3483 289.075 20.1858C289.339 21.0645 289.472 22.1959 289.472 23.5461V25.1149C289.472 25.1149 289.387 26.0758 289.376 26.2093H277.106C277.212 24.9202 277.367 23.8401 277.576 22.9068C277.846 21.7171 278.251 20.6438 278.788 19.7347ZM278.529 16.2235C276.685 17.0646 275.054 18.1895 273.693 19.5636C272.316 20.9415 271.226 22.5445 270.442 24.3254C269.654 26.1103 269.253 27.9833 269.253 29.8839C269.253 32.0686 269.64 34.0853 270.401 35.8834C271.168 37.6712 272.268 39.2337 273.666 40.5359C275.064 41.8315 276.743 42.8399 278.659 43.5338C280.577 44.2175 282.677 44.5696 284.895 44.5696C287.146 44.5696 289.02 44.2276 290.466 43.5512C291.888 42.8877 293.046 42.0913 293.899 41.182C294.742 40.2863 295.369 39.3702 295.763 38.461L296.76 35.8491L296.11 35.7706L294.68 35.4868L293.738 37.8352C293.406 38.5771 292.905 39.3153 292.234 40.0367C291.565 40.7582 290.636 41.3734 289.472 41.8827C288.317 42.3888 286.796 42.6453 284.963 42.6453C283.171 42.6453 281.729 42.2757 280.673 41.5546C279.611 40.8262 278.788 39.8759 278.244 38.7444C277.678 37.5856 277.312 36.273 277.147 34.8268C276.976 33.3333 276.887 31.8976 276.887 30.5537C276.887 30.5537 276.921 28.2223 276.921 28.1335H297.11V27.6071C297.11 25.2521 296.681 23.2383 295.838 21.6146C295.002 20.0181 293.936 18.7091 292.689 17.721C291.442 16.7539 290.069 16.039 288.612 15.6017C287.156 15.1709 285.781 14.9522 284.524 14.9522C282.397 14.9522 280.381 15.383 278.529 16.2235Z" fill="black"/>
<path d="M214.976 41.8917C214.373 41.5975 213.91 41.2252 213.584 40.7737C213.249 40.3018 213.015 39.7688 212.892 39.1878C212.769 38.5653 212.704 37.9468 212.704 37.3552C212.704 36.0287 213.067 34.9009 213.776 34.0258C214.516 33.1233 215.596 32.4123 216.99 31.9099L222.263 30.0366C223.007 29.7561 223.572 29.4693 224.014 29.1612V34.1764C224.014 34.9794 223.939 35.8887 223.777 36.8735C223.621 37.8304 223.312 38.7297 222.856 39.5465C222.407 40.3429 221.736 41.0098 220.862 41.5326C219.992 42.066 218.82 42.3363 217.381 42.3363C216.384 42.3363 215.575 42.1857 214.976 41.8917ZM214.305 15.6379C212.862 16.0276 211.645 16.5711 210.686 17.2551C209.712 17.9423 208.963 18.7486 208.455 19.6546C207.944 20.5637 207.685 21.5383 207.685 22.5498C207.685 23.4558 207.907 24.2183 208.349 24.8099C208.846 25.4695 209.898 25.7769 211.659 25.7769C212.673 25.7769 213.474 25.5342 214.036 25.0522C214.63 24.5501 214.932 23.9174 214.932 23.1723L214.715 21.5348C214.586 20.858 214.516 20.1843 214.516 19.5247C214.516 18.6362 214.906 18.0377 215.74 17.6415C216.675 17.19 217.885 16.9677 219.351 16.9677C220.426 16.9677 221.307 17.1012 221.966 17.3676C222.565 17.6171 223.031 17.9828 223.343 18.4579C223.686 18.9607 223.915 19.5763 224.046 20.2872C224.179 21.053 224.247 21.9346 224.247 22.8988C224.247 24.0953 224.145 25.0489 223.953 25.726C223.767 26.3547 223.432 26.8775 222.952 27.2813C222.434 27.7222 221.701 28.105 220.774 28.4128L216.949 29.5952L213.06 30.655C211.758 30.9869 210.538 31.4311 209.435 31.9783C208.304 32.5422 207.376 33.3044 206.677 34.2376C205.954 35.1981 205.588 36.4872 205.588 38.0665C205.588 38.7399 205.703 39.4712 205.923 40.237C206.166 41.0677 206.656 41.8167 207.386 42.4589C208.085 43.0883 209.072 43.6214 210.309 44.0387C211.529 44.4523 213.17 44.6604 215.191 44.6604C216.987 44.6604 218.485 44.4727 219.646 44.107C220.824 43.7308 221.787 43.259 222.517 42.702C223.243 42.1446 223.802 41.5428 224.165 40.921C224.165 40.921 224.392 40.5037 224.495 40.3193C224.96 41.6149 225.57 42.5754 226.365 43.2524C227.465 44.1853 229.222 44.6604 231.583 44.6604C232.858 44.6604 233.964 44.4934 234.866 44.1583C235.747 43.8196 236.517 43.43 237.161 42.9857L237.638 42.6608L236.408 41.1601L236.003 41.4198C235.544 41.7207 235.05 41.9532 234.529 42.1071C234.016 42.261 233.519 42.3363 233.064 42.3363C232.402 42.3363 231.929 42.1788 231.607 41.8677C231.395 41.656 231.134 41.1295 231.134 39.7961V24.2183C231.134 23.0392 230.933 21.8938 230.535 20.8136C230.133 19.7163 229.445 18.7217 228.492 17.8496C227.544 16.9881 226.296 16.2976 224.782 15.7954C223.274 15.3028 221.396 15.0503 219.194 15.0503C217.367 15.0503 215.722 15.2483 214.305 15.6379Z" fill="black"/>
<path d="M246.825 42.0463C245.913 41.4412 245.221 40.5524 244.758 39.4071C244.282 38.2105 243.973 36.7374 243.854 35.0215C243.73 33.3054 243.665 31.3295 243.665 29.1382C243.665 27.6749 243.827 25.7609 244.145 23.4463C244.343 21.9797 244.7 20.715 245.197 19.6861C245.676 18.6914 246.351 17.9186 247.194 17.3922C248.055 16.8625 249.179 16.5925 250.524 16.5925C251.971 16.5925 253.177 16.849 254.105 17.3511C255.034 17.8572 255.808 18.4964 256.388 19.2691C256.777 19.8091 257.114 20.4076 257.392 21.0432C257.665 21.6787 257.884 22.4413 258.046 23.3095C258.211 24.2051 258.323 25.2512 258.386 26.4102L258.306 31.2029C258.306 32.5498 258.2 33.9615 257.998 35.3905C257.796 36.7923 257.415 38.0773 256.853 39.2158C256.308 40.32 255.535 41.2325 254.544 41.9263C253.585 42.6135 252.258 42.962 250.61 42.962C249.01 42.962 247.736 42.6546 246.825 42.0463ZM253.475 -0.0041971V1.93109H258.306C258.313 2.03295 258.358 6.66197 258.358 6.66197C258.358 6.66197 258.481 18.893 258.481 19.2175C257.803 18.0624 257.073 17.1768 256.185 16.4761C254.667 15.2831 252.673 14.678 250.272 14.678C248.401 14.678 246.619 15.0815 244.957 15.8881C243.305 16.6914 241.835 17.7651 240.595 19.0709C239.335 20.3905 238.334 21.9527 237.604 23.706C236.836 25.5556 236.326 28.034 236.326 29.8869C236.326 31.8658 236.706 33.7769 237.467 35.575C238.224 37.3632 239.263 38.9629 240.554 40.3305C241.849 41.7076 243.37 42.8219 245.08 43.6424C246.793 44.4632 248.634 44.8801 250.549 44.8801C252.036 44.8801 253.331 44.6236 254.386 44.1143C255.417 43.6121 256.295 42.9966 256.988 42.2856C257.62 41.6293 258.09 40.9489 258.44 40.2617V44.2885H269.62V42.0871H264.785V-0.0041971H253.475Z" fill="black"/>
<path d="M294.711 8.6864H293.197V7.76968H297.185V8.6864H295.658V12.853H294.711V8.6864Z" fill="black"/>
<path d="M297.671 7.76902H298.964L300.327 11.6556L301.714 7.76902H302.996V12.8525H302.051V9.04434L300.738 12.8525H299.933L298.62 9.04434V12.8525H297.671V7.76902Z" fill="black"/>
<path d="M50.7788 77.3009C50.7788 74.5947 49.884 73.0055 47.8428 73.0055C46.865 73.0055 45.9141 73.4793 44.9075 74.5112V80.8433C45.8301 81.6516 46.809 81.9311 47.5917 81.9311C49.3811 81.9311 50.7788 80.3691 50.7788 77.3009ZM44.5717 82.8791H44.4883L44.1808 84.3299H41.5803V64.6372H44.9075V69.7142L44.7954 71.9732C45.9421 70.9687 47.3399 70.2719 48.7377 70.2719C52.1767 70.2719 54.1618 73.0331 54.1618 77.245C54.1618 81.959 51.3658 84.6643 48.3184 84.6643C47.0601 84.6643 45.7183 84.0234 44.5717 82.8791Z" fill="black"/>
<path d="M55.7855 89.63L56.4285 87.1477C56.8204 87.2589 57.0718 87.2865 57.3794 87.2865C58.8055 87.2865 59.6437 86.3389 60.0912 84.9995L60.3431 84.1344L54.947 70.6065H58.3019L60.6225 77.2731C61.0418 78.4726 61.433 79.8396 61.8249 81.15H61.9367C62.2718 79.8676 62.6357 78.5285 62.9709 77.2731L64.984 70.6065H68.1715L63.2227 84.916C62.0761 88.0399 60.6225 89.9375 57.6028 89.9375C56.8484 89.9375 56.3171 89.8254 55.7855 89.63Z" fill="black"/>
<path d="M206.27 78.0945C206.27 75.167 210.728 70.6439 212.96 70.6439C213.571 70.6439 213.97 70.9063 213.97 71.5278C213.97 73.1493 210.534 76.041 206.27 78.0945ZM195.271 70.6532C195.883 70.6532 196.28 70.9149 196.28 71.5364C196.28 73.1578 192.845 76.0495 188.58 78.1034C188.58 75.1755 193.04 70.6532 195.271 70.6532ZM149.834 78.4276C149.834 74.9364 155.153 71.0783 159.269 71.0783C160.083 71.0783 160.904 71.2157 161.63 71.5107C156.797 79.1983 149.834 82.2551 149.834 78.4276ZM145.252 94.5216C144.781 94.5216 144.478 94.2869 144.478 93.7877C144.478 92.7003 146.619 89.8717 152.248 87.8504C149.855 91.7506 147.071 94.5216 145.252 94.5216ZM113.638 78.4276C113.638 75.0568 118.892 71.0658 123.101 71.0658C123.949 71.0658 124.748 71.2045 125.438 71.5107C120.349 79.5005 113.638 82.1262 113.638 78.4276ZM146.414 63.0135C146.878 63.0135 147.081 63.2454 147.081 63.6794C147.081 65.678 142.292 71.8747 137.474 75.7838C138.693 71.5271 144.15 63.0135 146.414 63.0135ZM255.199 80.6297C258.839 76.0712 254.071 69.4072 259.224 67.601C259.105 66.3205 257.901 65.5547 256.364 65.5547C254.98 65.5547 253.499 66.31 252.551 67.5296C247.122 74.5175 241.486 79.8997 238.263 79.8997C237.19 79.8997 236.812 79.4072 236.812 78.5673C236.812 75.9614 240.091 72.1388 242.617 69.4747C242.937 69.1274 243.082 68.7795 243.082 68.4609C243.082 67.6792 242.182 67.158 241.079 67.158C238.306 67.158 232.549 71.5364 228.296 75.5346C229.819 72.6633 231.51 70.3786 231.51 69.1409C231.51 67.8374 230.146 67.4609 228.579 67.4901C222.507 75.5421 214.716 81.4913 209.716 81.4913C208.421 81.4913 207.556 81.0552 207.014 80.4111C213.382 77.8143 218.699 73.4781 218.699 70.2773C218.699 68.2951 217.032 67.4126 214.696 67.4126C208.7 67.4126 201.113 73.7777 200.738 80.1516C194.958 82.2248 190.653 81.8556 189.325 80.4199C195.692 77.8235 201.011 73.4863 201.011 70.2865C201.011 68.3036 199.343 67.4211 197.008 67.4211C190.96 67.4211 183.293 73.896 183.039 80.3246C180.146 81.2121 176.856 81.6024 176.856 79.223C176.856 75.2988 182.748 72.076 182.748 69.4645C182.748 68.7407 182.429 68.132 181.878 67.8137C179.999 68.7795 177.205 69.5802 175.173 69.5802C175.695 67.9584 175.144 66.6845 173.548 66.6845C171.197 66.6845 169.404 69.3198 169.404 71.4624C169.404 72.4025 169.751 73.0559 170.321 73.4879C167.989 76.6184 165.034 79.4824 161.049 81.758C162.239 79.2963 163.16 76.645 164.441 72.904C167.532 71.0843 169.101 67.3783 162.871 67.3783C157.763 67.3783 152.121 70.441 148.591 74.5596C143.98 79.9369 138.368 82.9401 137.371 78.8593C144.984 73.1463 152.061 65.0713 151.983 61.0488C151.956 59.5938 151.087 58.6056 149.045 58.6056C144.213 58.6056 132.943 69.5663 131.986 79.3216C123.919 83.6319 124.832 76.841 127.299 73.268C130.884 71.4318 133.365 67.3783 126.68 67.3783C116.98 67.3783 108.996 76.377 109.13 82.1335C109.171 83.8378 110.029 85.2445 111.843 85.2451C113.922 85.2461 117.259 83.8088 120.775 80.1862C120.097 83.6556 120.903 85.2451 123.755 85.2451C126.073 85.2451 129.044 84.0814 132.184 82.2808C132.705 83.9009 134.06 85.2451 136.721 85.2451C139.483 85.2451 142.888 83.0749 145.553 80.274C145.417 80.8951 145.344 81.5179 145.344 82.1364C145.344 84.1498 146.426 85.2445 148.035 85.2451C149.846 85.2461 152.558 83.8118 155.543 81.0003C155.073 82.2788 154.537 83.5796 153.906 84.8479C147.481 87.1106 140.856 89.5603 140.856 93.9965C140.856 95.8787 142.42 97 144.394 97C149.209 97 155.126 91.2607 158.821 85.6654C163.399 83.6174 168.728 79.7406 172.838 74.1956C173.908 74.2215 175.093 74.0378 176.19 73.7501C172.675 77.4766 171.051 79.8892 171.051 82.2348C171.051 84.1751 172.532 85.2451 175.144 85.2451C177.424 85.2451 180.289 84.4405 183.676 82.9532C184.667 84.4681 186.732 85.2451 189.386 85.2451C193.347 85.2451 197.727 83.8963 201.124 82.4975C201.878 84.0988 203.689 85.2451 206.594 85.2451C212.499 85.2451 217.843 81.5063 222.351 77.5002C220.316 80.5906 217.287 85.2451 221.545 85.2451C222.212 85.2451 223.152 85.1373 223.923 84.8808C226.942 79.3785 230.863 75.8164 234.78 73.4712C231.559 77.4671 230.224 80.5074 230.224 82.4768C230.224 84.3014 231.355 85.2451 233.213 85.2451C238.871 85.2451 245.518 79.4433 251.239 72.8007C251.533 75.3379 253.081 78.06 250.369 80.4229C246.273 80.3262 243.981 81.5047 243.986 83.4214C243.989 84.6013 244.98 85.2451 246.382 85.2451C247.808 85.2451 249.207 84.8318 250.504 84.1955C252.799 84.8588 255.168 85.57 257.937 85.57C261.974 85.57 264.818 83.547 264.906 80.1967C262.591 81.4061 258.86 80.951 255.199 80.6297Z" fill="black"/>
<path d="M93.0592 76.4234C93.1461 71.0083 96.9775 65.317 98.9224 65.317C99.497 65.317 99.6193 65.6899 99.6193 66.0854C99.6193 67.9387 96.862 72.8909 93.0592 76.4234ZM112.338 57.1105C110.527 57.1 108.78 58.194 107.648 59.8348C112.994 63.3227 106.444 80.687 96.7843 80.687C95.6267 80.687 94.6446 80.3509 93.9873 79.664C99.2169 74.9641 102.994 68.5734 102.994 64.8043C102.994 62.8771 102.051 61.6552 99.8396 61.6552C93.4228 61.6552 86.6584 72.1576 87.9139 79.7341C83.868 81.1677 81.8578 79.3743 81.8578 75.772C81.8578 68.2514 89.7348 60.4506 89.2775 58.1038C81.1156 60.621 74.7281 54.7725 71.7839 64.291C75.7515 62.1373 79.4132 65.58 83.9389 63.0629C80.052 67.5362 76.1293 73.8698 76.182 79.2185C76.2169 82.7197 78.1121 85.2451 82.2174 85.2451C84.5491 85.2451 86.9689 84.4303 89.2969 83.1018C90.295 84.3462 91.9032 85.2451 94.3611 85.2451C104.381 85.2451 115.331 71.1994 115.331 61.1767C115.331 58.5178 114.273 57.121 112.338 57.1105Z" fill="black"/>
</g>
<defs>
<clipPath id="clip0_206_658">
<rect width="303" height="97" fill="white"/>
</clipPath>
</defs>
</svg>
