<svg width="291" height="78" viewBox="0 0 291 78" fill="none" xmlns="http://www.w3.org/2000/svg">
<path d="M0 55.9959C3.06378 55.8519 5.31606 55.3925 6.75686 54.6285C8.19216 53.8645 8.9153 52.3201 8.9153 50.0175V10.5219C8.9153 8.2136 8.19767 6.67474 6.75686 5.91085C5.3216 5.14695 3.06929 4.68196 0 4.54359V2.16333H46.1609L46.3764 14.8506H45.0126C43.9583 12.3486 42.9426 10.4444 41.9598 9.12141C40.9771 7.79845 39.8013 6.8408 38.438 6.23743C37.0745 5.63406 35.2859 5.33517 33.0833 5.33517H14.7337V29.9126H31.118C32.8404 29.9126 34.1376 29.2982 34.9988 28.0749C35.8655 26.846 36.5335 24.9363 37.0082 22.3456H39.0176V40.5741H37.0082C36.5335 38.0276 35.86 36.1456 34.9988 34.9167C34.1321 33.6878 32.8404 33.0789 31.118 33.0789H14.7337V50.0121C14.7337 51.6006 15.1753 52.8127 16.0641 53.6488C16.9529 54.4901 18.1232 55.0548 19.5861 55.3426C21.0435 55.6304 23.0473 55.8519 25.5867 55.9904V58.3651H0V55.9904V55.9959Z" fill="black"/>
<path d="M57.8249 52.1722C57.8249 53.6667 58.3106 54.6522 59.2988 55.128C60.2811 55.6042 61.827 55.9974 63.9359 56.2852V58.3721H46.2542V56.2852C48.3576 55.9974 49.9086 55.6152 50.8913 55.128C51.874 54.6522 52.3596 53.6667 52.3596 52.1722V26.8752L46.6073 24.9986V23.5594L55.8045 20.1053H58.1726L57.8135 27.8162V52.1722H57.8194H57.8249ZM51.5315 5.40308C52.3211 4.58935 53.3148 4.17419 54.5127 4.17419C55.7105 4.17419 56.7152 4.58381 57.5324 5.40308C58.3436 6.21678 58.7577 7.22977 58.7577 8.43097C58.7577 9.63217 58.3491 10.6286 57.5324 11.4201C56.7207 12.2117 55.7105 12.6102 54.5127 12.6102C53.3148 12.6102 52.3211 12.2172 51.5315 11.4201C50.7422 10.6286 50.3447 9.63217 50.3447 8.43097C50.3447 7.22977 50.7367 6.22232 51.5315 5.40308Z" fill="black"/>
<path d="M99.2602 32.5724C99.2602 29.7382 98.5425 27.6956 97.1072 26.4446C95.6718 25.1936 93.6073 24.5681 90.9242 24.5681C88.8156 24.5681 86.5521 25.1216 84.129 26.2232C81.7109 27.3247 79.6354 28.6698 77.913 30.2585V52.168C77.913 53.6624 78.3986 54.648 79.3813 55.1238C80.364 55.6 81.9095 55.9931 84.0185 56.2809V58.3678H66.3367V56.2809C68.4401 55.9931 69.9915 55.6109 70.9738 55.1238C71.9565 54.648 72.4422 53.6624 72.4422 52.168V26.8708L66.6957 24.9943V23.5551L75.8925 20.1009H78.2606L77.902 27.3801C79.7734 25.3652 82.0145 23.6215 84.6256 22.1546C87.2368 20.6932 89.9305 19.957 92.7131 19.957C96.4005 19.957 99.3262 20.9091 101.485 22.8078C103.643 24.7065 104.72 27.6956 104.72 31.7808V52.1734C104.72 53.6679 105.205 54.6534 106.188 55.1292C107.171 55.6054 108.716 55.9985 110.825 56.2864V58.3732H93.1437V56.2864C95.2467 55.9985 96.7981 55.6163 97.7804 55.1292C98.7631 54.6534 99.2488 53.6679 99.2488 52.1734V32.5668H99.2547L99.2602 32.5724Z" fill="black"/>
<path d="M208.424 24.1266C211.129 26.9109 212.482 30.5367 212.482 35.0093V36.7364H183.45C183.401 37.1183 183.379 37.6719 183.379 38.3915C183.379 41.613 183.991 44.4307 185.211 46.8608C186.437 49.2855 188.159 51.1617 190.389 52.4792C192.62 53.802 195.192 54.4611 198.118 54.4611C201.044 54.4611 203.456 53.9296 205.377 52.8723C207.293 51.815 209.114 50.1821 210.842 47.9735L212.642 48.6209C211.543 51.6933 209.672 54.2065 207.039 56.1549C204.405 58.1033 200.978 59.0721 196.765 59.0721C192.929 59.0721 189.639 58.236 186.884 56.5476C184.129 54.8652 182.031 52.6344 180.597 49.8498C179.161 47.0656 178.438 44.0376 178.438 40.7663C178.438 36.7308 179.2 33.1272 180.74 29.9555C182.274 26.7836 184.438 24.3259 187.243 22.5711C190.047 20.8219 193.266 19.9418 196.915 19.9418C201.894 19.9418 205.741 21.3367 208.446 24.1211L208.424 24.1266ZM187.982 26.3961C185.923 28.2505 184.582 30.6584 183.958 33.6365H206.525C206.525 30.7083 205.554 28.3059 203.616 26.4293C201.678 24.5528 198.957 23.6173 195.457 23.6173C192.531 23.6173 190.047 24.5417 187.982 26.3906V26.3961Z" fill="black"/>
<path d="M260.191 56.6736C257.392 55.0629 255.195 52.843 253.616 50.0089C252.032 47.1748 251.248 43.9366 251.248 40.2776C251.248 36.2424 252.169 32.6886 254.013 29.6164C255.857 26.5442 258.292 24.164 261.306 22.4812C264.325 20.7984 267.582 19.957 271.082 19.957C274.582 19.957 277.944 20.7597 280.748 22.3705C283.552 23.9813 285.744 26.2065 287.323 29.0352C288.907 31.8749 289.691 35.1131 289.691 38.7665C289.691 42.8017 288.769 46.3558 286.925 49.4278C285.082 52.4998 282.647 54.8859 279.633 56.5632C276.613 58.2457 273.356 59.0873 269.857 59.0873C266.357 59.0873 262.995 58.2847 260.185 56.6736H260.191ZM280.737 51.127C282.868 48.3651 283.939 44.9163 283.939 40.787C283.939 35.4065 282.647 31.2272 280.058 28.2491C277.469 25.2711 273.853 23.7765 269.205 23.7765C265.324 23.7765 262.316 25.1548 260.185 27.9225C258.054 30.6848 256.983 34.1333 256.983 38.2628C256.983 43.6433 258.275 47.8226 260.864 50.8006C263.453 53.7786 267.069 55.2731 271.717 55.2731C275.598 55.2731 278.606 53.8949 280.732 51.127H280.737Z" fill="black"/>
<path d="M249.686 56.3803C247.698 54.7696 244.933 53.967 241.383 53.967H224.784C223.636 53.967 222.747 53.6901 222.123 53.1367C221.499 52.5829 221.19 51.7803 221.19 50.723C221.19 49.7601 221.45 48.9575 221.974 48.3097C222.498 47.6619 223.315 46.8815 224.419 45.9681C225.236 46.3059 226.379 46.6159 227.864 46.9092C229.349 47.197 230.812 47.3355 232.247 47.3355C235.863 47.3355 238.949 46.5714 241.494 45.0325C244.607 42.9238 246.561 40.1727 247.185 36.7904C247.295 36.1704 247.367 35.5227 247.395 34.8474C247.4 34.6869 247.406 34.5208 247.406 34.3492V34.3382C247.406 33.5466 247.351 32.7771 247.246 32.0409C247.246 32.0299 247.246 32.0188 247.246 32.0188C246.793 28.847 245.38 26.2287 243.177 24.164C243.061 24.0588 242.94 23.9481 242.824 23.8429C239.91 21.2745 236.834 19.9847 232.17 19.957C232.126 19.957 232.076 19.957 232.032 19.9626C227.688 20.1065 224.132 21.4018 221.367 23.8429C218.419 26.4335 216.939 29.943 216.939 34.3603C216.939 38.7776 218.86 42.4367 222.691 45.027C220.682 45.9849 219.158 47.02 218.132 48.1213C217.099 49.2285 216.58 50.6735 216.58 52.4448C216.58 53.79 216.95 54.9798 217.701 56.0149C218.441 57.0445 219.534 57.8085 220.969 58.2847C218.766 59.2921 217.088 60.4157 215.94 61.6336C214.786 62.8625 214.218 64.4565 214.218 66.4271C214.218 69.2671 215.631 71.6305 218.457 73.5236C221.289 75.4225 225.529 76.3745 231.182 76.3745C235.587 76.3745 239.418 75.8043 242.681 74.6807C245.938 73.5513 248.416 72.0127 250.122 70.0697C251.817 68.1213 252.672 65.9236 252.672 63.4768C252.672 60.3548 251.679 57.9856 249.691 56.3749L249.686 56.3803ZM222.625 32.5613C222.625 29.8766 223.354 27.6513 224.817 25.8966C226.274 24.1474 228.306 23.2672 230.895 23.2672C231.773 23.2672 232.595 23.3392 233.368 23.4831C235.598 23.8983 237.392 24.9057 238.761 26.511C240.61 28.6754 241.527 31.5538 241.527 35.1574C241.527 37.427 241.008 39.3643 239.965 40.964C239.772 41.2632 239.567 41.551 239.335 41.8275C237.873 43.5825 235.847 44.4569 233.257 44.4569C229.857 44.4569 227.235 43.3777 225.385 41.2132C223.542 39.0487 222.625 36.1704 222.625 32.5668V32.5613ZM243.79 70.9332C241.035 72.5439 237.309 73.3465 232.617 73.3465C228.83 73.3465 225.728 72.6379 223.31 71.221C220.892 69.8038 219.683 67.7999 219.683 65.2041C219.683 63.859 219.92 62.6909 220.401 61.7054C220.875 60.7203 221.648 59.7683 222.697 58.8549H240.522C245.457 58.8549 247.92 60.6536 247.92 64.2572C247.92 67.0972 246.545 69.3112 243.785 70.9219L243.79 70.9332Z" fill="black"/>
<path d="M124.858 20.2211V14.4863C124.858 6.89719 127.348 3.09986 132.333 3.09986C134.105 3.09986 135.452 3.50949 136.357 4.32873C137.268 5.14246 137.72 6.43773 137.72 8.22019V9.51545H140.955C141.529 9.22763 142.01 8.78479 142.391 8.18142C142.772 7.57805 142.965 6.89719 142.965 6.12776C142.965 4.20697 142.187 2.70684 140.63 1.62189C139.067 0.542474 136.926 0 134.193 0C129.445 0 125.791 1.49458 123.235 4.47268C120.668 7.45075 119.387 11.6577 119.387 17.0825V19.9664L113.851 22.1308V23.7859H119.387V52.1773C119.387 53.6718 118.902 54.6573 117.919 55.1331C116.936 55.6148 115.385 56.0024 113.282 56.2903V58.3771H132.399V56.2903C130.191 56.0465 128.618 55.8141 127.657 55.6039C126.696 55.3823 125.99 55.0005 125.532 54.4467C125.073 53.8933 124.847 52.9967 124.847 51.7456H124.858V23.7859H137.091C137.56 23.7859 138.035 23.88 138.444 24.107H138.449C139.167 24.511 139.526 25.369 139.526 26.6643V47.057C139.526 51.2417 140.602 54.2919 142.761 56.2126C144.919 58.1334 147.789 59.0967 151.383 59.0967C154.26 59.0967 156.744 58.438 158.858 57.1151C160.961 55.7918 163.031 54.0318 165.041 51.8173H165.057L164.698 59.1022H165.272L177.058 56.5059V54.3418L175.049 54.054C173.658 53.8602 172.675 53.6831 172.101 53.5115C171.521 53.3399 171.119 53.0798 170.876 52.7198C170.633 52.3598 170.517 51.7678 170.517 50.9539V27.6054L170.876 19.9664H169.291L158.367 20.686V23.0607L159.73 23.1327C161.833 23.3763 163.252 23.7029 163.969 24.107C164.687 24.511 165.046 25.369 165.046 26.6643V48.7898C162.982 50.6661 161.022 52.1551 159.15 53.2623C157.279 54.3637 155.27 54.9175 153.117 54.9175C150.622 54.9175 148.645 54.2256 147.188 52.8306C145.73 51.441 144.996 49.3264 144.996 46.4923V27.6109L145.355 19.972H143.771C134.077 20.6916 124.858 20.2321 124.858 20.2321V20.2211Z" fill="black"/>
<path d="M239.583 21.8699L241.252 20.204C241.74 19.5889 241.733 18.7144 241.23 18.1067L238.077 14.2529C237.013 12.9486 237.175 11.0365 238.446 9.93227L244.79 4.43323L245.138 4.95942L243.394 8.36852C243.092 8.9614 243.166 9.68029 243.587 10.1917L246.659 13.9565C247.715 15.246 247.56 17.1433 246.312 18.2475L240.687 23.2538" fill="black"/>
</svg>
