<svg width="303" height="45" viewBox="0 0 303 45" fill="none" xmlns="http://www.w3.org/2000/svg">
<path d="M132.058 8.95985H136.044V18.5657H123.27V8.95985H127.255V2.06204H109.066V8.95985H113.358V36.0401H109.066V42.938H127.255V36.0401H123.27V25.4635H136.044V36.0401H132.058V42.938H150.248V36.0401H145.956V8.95985H150.248V2.06204H132.058V8.95985ZM24.7591 8.95985H28.7445V18.5657H15.9707V8.95985H19.9561V2.06204H1.76636V8.95985H6.05833V36.0401H1.76636V42.938H19.9561V36.0401H15.9707V25.4635H28.7445V36.0401H24.7591V42.938H42.9488V36.0401H38.6569V8.95985H42.9488V2.06204H24.7591C24.7591 2.06204 24.7591 8.95985 24.7591 8.95985ZM45.6058 8.95985H49.8977V36.0401H45.6058V42.938H64.1021V36.0401H59.8102V8.95985H64.1021V2.06204H45.6058C45.6058 2.06204 45.6058 8.95985 45.6058 8.95985ZM86.5328 27.5073H95.4427C95.1019 32.953 91.9867 36.0401 86.7372 36.0401C80.1459 36.0401 76.2627 30.9818 76.2627 22.4489C76.2627 13.9161 80.2481 8.90876 86.8904 8.90876C91.7445 8.90876 95.5255 11.8212 96.2408 16.1642H104.467V2.06204H96.343V5.70511C93.7704 2.95058 90.0277 1.5 85.3576 1.5C74.0145 1.5 65.4817 10.5438 65.4817 22.5511C65.4817 34.5584 74.1678 43.5 85.4087 43.5C90.4063 43.5 94.4831 41.5216 97.0583 37.8203V42.938H105.438V20.4562H86.5328C86.5328 20.4562 86.5328 27.5073 86.5328 27.5073ZM247.839 8.95985H252.489V27.168L237.467 2.06204H221.577V8.95985H225.869V36.0401H221.577V42.938H238.285V36.0401H233.635V13.6856L251.161 42.938H260.255V8.95985H264.445V2.06204H247.839V8.95985ZM188.978 36.0401H177.737V8.95985H182.642V2.06204H163.533V8.95985H167.825V36.0401H163.533V42.938H198.175V22.9088H188.978V36.0401ZM301.234 14.8869V2.06204H266.438V8.95985H270.73V36.0401H266.438V42.938H301.234V29.0912H292.036V36.0401H280.642V25.4124H292.036V18.3613H280.642V8.95985H292.036V14.8869H301.234ZM200.423 8.95985H204.715V36.0401H200.423V42.938H218.92V36.0401H214.628V8.95985H218.92V2.06204H200.423V8.95985Z" fill="black"/>
</svg>
