<svg width="394" height="72" viewBox="0 0 394 72" fill="none" xmlns="http://www.w3.org/2000/svg">
<path d="M8.14945 56.4376C6.70126 56.4408 5.27817 56.0602 4.02558 55.3348C2.77299 54.6094 1.7358 53.5651 1.01996 52.3086C0.315081 51.061 -0.036462 49.6456 0.0029905 48.2138C0.042443 46.7821 0.471405 45.388 1.24393 44.181L15.926 21.1704C16.6774 19.9337 17.7443 18.9182 19.0176 18.2277C20.291 17.5372 21.7251 17.1964 23.1736 17.2401C24.621 17.2747 26.0332 17.6925 27.2657 18.4507C28.4982 19.2089 29.5067 20.2803 30.188 21.5553C31.5567 24.1383 31.3856 27.2459 29.7463 29.6705L15.0736 52.6812C14.3296 53.8384 13.3049 54.7894 12.0944 55.446C10.884 56.1027 9.52712 56.4437 8.14945 56.4376Z" fill="black"/>
<path d="M33.3331 56.437C30.3718 56.437 27.6469 54.8568 26.2161 52.3173C25.5128 51.0731 25.162 49.6613 25.2015 48.2333C25.2409 46.8054 25.6691 45.415 26.44 44.2114L41.0941 21.2535C41.8344 19.9995 42.8975 18.9659 44.173 18.2601C45.4485 17.5543 46.89 17.2018 48.348 17.2394C51.3341 17.3046 54.0404 18.9717 55.409 21.5795C56.7684 24.1873 56.5693 27.3136 54.8802 29.732L40.2293 52.6898C39.4875 53.8421 38.467 54.7894 37.2617 55.4443C36.0565 56.0991 34.7054 56.4405 33.3331 56.437Z" fill="black"/>
<path d="M57.9535 56.6294C62.1281 56.6294 65.5123 53.3228 65.5123 49.2438C65.5123 45.1648 62.1281 41.8582 57.9535 41.8582C53.7789 41.8582 50.3948 45.1648 50.3948 49.2438C50.3948 53.3228 53.7789 56.6294 57.9535 56.6294Z" fill="black"/>
<path d="M386.327 42.2866C388.61 42.2866 389.976 43.9071 389.976 46.5615V55.6578H393.077V46.3534C393.077 41.8395 390.947 39.2224 386.94 39.2224C385.372 39.2224 382.884 39.6509 381.4 42.5287C381.055 41.6799 380.487 40.9401 379.754 40.388C379.022 39.8359 378.154 39.4921 377.241 39.3931C376.667 39.2882 376.082 39.2538 375.499 39.2907C374.224 39.3931 371.953 40.1848 371.104 41.9792V39.567H368V55.6578H371.104V46.9744C371.104 43.5966 373.319 42.2866 375.537 42.2866C377.614 42.2866 378.98 43.873 378.98 46.5273V55.6578H382.066V46.9744C382.066 44.2859 383.683 42.2555 386.327 42.2866ZM356.606 52.9692C358.024 53.0003 359.393 52.4353 360.385 51.4107C361.38 50.3862 361.909 48.9923 361.856 47.5612C361.856 44.32 359.467 42.2865 356.606 42.2865C353.741 42.2865 351.355 44.32 351.355 47.5612C351.299 48.9892 351.828 50.38 352.817 51.4014C353.806 52.4259 355.168 52.9941 356.581 52.9692H356.606ZM356.606 55.9868C352.07 55.9868 348.285 52.6433 348.285 47.5425C348.285 42.4418 352.07 39.2038 356.606 39.2038C361.141 39.2038 364.957 42.4418 364.957 47.5425C364.957 52.6433 361.119 56.0023 356.584 56.0023L356.606 55.9868ZM332.312 47.5425L332.281 47.5612C332.281 42.4604 336.166 39.2225 340.732 39.2038C341.879 39.1816 343.018 39.4001 344.075 39.845C345.133 40.29 346.084 40.9515 346.869 41.7868L344.518 43.7861C344.018 43.2966 343.426 42.9107 342.777 42.6506C342.127 42.3906 341.432 42.2616 340.732 42.2711C337.87 42.2711 335.382 44.3046 335.382 47.5425C335.382 49.7312 336.685 51.7026 338.685 52.5408C340.685 53.379 342.987 52.9133 344.518 51.3672L346.904 53.3665C346.116 54.2104 345.16 54.8797 344.097 55.3311C343.034 55.7825 341.887 56.0059 340.732 55.9868C336.2 55.9868 332.312 52.6433 332.312 47.5425ZM322.38 52.5687C322.376 52.2874 322.429 52.0082 322.533 51.7471C322.638 51.4859 322.794 51.2479 322.991 51.0467C323.188 50.8455 323.422 50.6849 323.682 50.5743C323.941 50.4636 324.219 50.405 324.501 50.4018C324.783 50.405 325.061 50.4636 325.321 50.5743C325.58 50.685 325.814 50.8455 326.011 51.0467C326.208 51.2479 326.364 51.4859 326.469 51.7471C326.573 52.0082 326.626 52.2874 326.622 52.5687C326.595 53.1135 326.36 53.6273 325.966 54.0051C325.571 54.383 325.048 54.5965 324.501 54.6022C323.954 54.5965 323.431 54.383 323.036 54.0052C322.642 53.6273 322.407 53.1136 322.38 52.5687Z" fill="black"/>
<path fill-rule="evenodd" clip-rule="evenodd" d="M330.865 19.1114H319.82L312.077 39.033L304.375 19.1114H293.33L306.758 50.5912L298.406 71.4038H309.371L330.865 19.1114ZM263.689 36.6209C263.689 41.6503 268.093 44.9596 272.42 44.9596C276.673 44.9596 280.85 41.88 280.85 36.6178C280.85 31.3557 276.672 28.2729 272.42 28.2729C268.093 28.2729 263.689 31.5854 263.689 36.6179V36.6209ZM280.85 54.1987V50.2156C278.61 53.5995 273.385 54.8785 270.703 54.8785C261.826 54.8785 252.945 47.8934 252.945 36.6178C252.945 25.3453 261.822 18.3602 270.703 18.3602C272.94 18.3602 278.166 19.1053 280.85 23.017V19.1239H291.146V54.2049L280.85 54.2018V54.1987ZM250.015 54.1987H239.718V49.8399C237.998 53.0686 233.827 54.9498 229.497 54.9498C220.542 54.9498 212.631 47.8126 212.631 36.7605C212.631 25.5005 220.541 18.3539 229.497 18.3539C233.821 18.3539 238.004 20.1545 239.718 23.3863V0H250.014L250.015 54.1987ZM239.495 36.5401C239.495 31.2811 235.69 28.1983 231.438 28.1983C227.033 28.1983 223.375 31.5046 223.375 36.5401C223.375 41.737 227.033 45.0279 231.435 45.0279C235.768 45.034 239.495 41.5757 239.495 36.5401ZM187.174 35.6336C187.174 30.3001 189.936 28.4963 193.591 28.4963C197.097 28.4963 199.635 30.8247 199.635 35.4815V54.1924H210.006V33.2307C210.006 23.2404 205.079 18.3539 197.243 18.3539C193.14 18.3539 189.038 20.6822 187.171 24.2152V19.1114H176.807V54.1925H187.174V35.6336ZM155.748 54.7947C145.9 54.7947 137.685 47.5829 137.685 36.537C137.685 25.4849 145.89 18.3446 155.748 18.3446C165.605 18.3446 173.883 25.4849 173.883 36.537C173.883 47.5891 165.596 54.7978 155.748 54.7978V54.7947ZM155.748 44.5808C160.072 44.5808 163.658 41.4204 163.658 36.5401C163.658 31.8058 160.075 28.574 155.748 28.574C154.706 28.5577 153.672 28.7533 152.708 29.1488C151.744 29.5443 150.872 30.1314 150.143 30.8744C149.409 31.6214 148.834 32.5079 148.451 33.4812C148.068 34.4545 147.885 35.4947 147.912 36.5401C147.915 41.4266 151.496 44.5808 155.748 44.5808ZM119.092 28.4994C122.15 28.4994 124.838 30.9053 124.838 35.4845V54.1985H135.134V34.2738C135.134 23.6812 129.973 18.3477 121.702 18.3477C119.245 18.3477 114.616 19.0928 111.257 24.5816C109.316 20.524 105.586 18.4191 100.074 18.4191C98.1607 18.4094 96.2846 18.9499 94.6706 19.9761C93.0565 21.0023 91.7728 22.4708 90.9728 24.2059V19.1145H80.5957V54.1955H90.9633V35.6336C90.9633 30.3001 93.8748 28.4963 97.0072 28.4963C99.9934 28.4963 102.675 30.8247 102.753 35.2579V54.1955H113.123V35.6336C113.123 30.5329 115.811 28.5025 119.092 28.5025V28.4994Z" fill="black"/>
</svg>
