<svg width="290" height="73" viewBox="0 0 290 73" fill="none" xmlns="http://www.w3.org/2000/svg">
<path d="M89.9896 0H72.48V70.8332H89.9896V0Z" fill="black"/>
<path d="M65.8266 29.1061H48.3213V70.8319H65.8266V29.1061Z" fill="black"/>
<path d="M41.6689 18.5853H24.1636V70.8344H41.6689V18.5853Z" fill="black"/>
<path d="M17.5053 36.4677H0V70.8324H17.5053V36.4677Z" fill="black"/>
<path d="M189.003 71.1008V29.4744H194.257C195.605 29.4744 196.78 29.9625 197.743 30.9215C198.711 31.8849 199.203 33.0512 199.203 34.3904V71.1008H189.008H189.003Z" fill="black"/>
<path d="M199.199 27.069C198.529 26.3778 197.199 25.4836 194.81 25.4836H189.003V23.76C189.003 22.4251 189.492 21.2544 190.455 20.2868C191.44 19.3148 192.585 18.8396 193.95 18.8396H199.203V27.0646L199.199 27.069Z" fill="black"/>
<path d="M290 67.2291C290 69.2897 288.337 70.9269 286.215 70.9269C284.094 70.9269 282.405 69.2897 282.405 67.2291C282.405 65.1685 284.094 63.5529 286.237 63.5529C288.38 63.5529 289.996 65.1642 289.996 67.2291H290ZM283.36 67.2291C283.36 68.8663 284.595 70.1623 286.241 70.1623C287.84 70.1839 289.058 68.862 289.058 67.2507C289.058 65.6393 287.84 64.2915 286.194 64.2915C284.548 64.2915 283.364 65.6134 283.364 67.2248L283.36 67.2291ZM285.628 69.1341H284.777V65.4579C285.118 65.4104 285.589 65.3456 286.194 65.3456C286.898 65.3456 287.213 65.4579 287.46 65.635C287.684 65.7905 287.84 66.0627 287.84 66.4169C287.84 66.8662 287.498 67.1556 287.071 67.2895V67.3371C287.434 67.4494 287.619 67.7431 287.723 68.2356C287.84 68.7929 287.931 68.9959 287.995 69.1298H287.092C286.976 68.9959 286.911 68.6805 286.803 68.2356C286.73 67.8555 286.505 67.674 286.034 67.674H285.628V69.1298V69.1341ZM285.654 67.0735H286.06C286.531 67.0735 286.92 66.9137 286.92 66.5379C286.92 66.2009 286.669 65.9763 286.133 65.9763C285.9 65.9763 285.745 65.9979 285.654 66.0238V67.0778V67.0735Z" fill="black"/>
<path d="M144.877 47.3788V71.095H134.672V47.7892C134.672 41.3612 131.925 38.2379 126.265 38.2379C120.606 38.2379 117.858 41.3612 117.858 47.7892V71.095H107.654V47.3788C107.654 35.8663 114.437 29.2612 126.265 29.2612C138.094 29.2612 144.877 35.8663 144.877 47.3788Z" fill="black"/>
<path d="M240.356 47.3788V71.095H230.152V47.7892C230.152 41.3612 227.404 38.2379 221.745 38.2379C216.086 38.2379 213.338 41.3612 213.338 47.7892V71.095H203.134V47.3788C203.134 35.8663 209.916 29.2612 221.745 29.2612C233.574 29.2612 240.356 35.8663 240.356 47.3788Z" fill="black"/>
<path d="M186.492 56.7659L186.19 58.2865C184.462 66.909 177.122 72.702 167.924 72.702C155.944 72.702 147.576 63.7685 147.576 50.9816C147.576 38.1947 156.07 29.2612 167.769 29.2612C177.104 29.2612 184.215 34.89 185.883 43.6076L186.173 45.1152H176.275L176.068 44.1389C175.303 40.5016 172.123 38.2379 167.769 38.2379C160.148 38.2379 157.443 45.1022 157.443 50.9816C157.443 56.861 160.187 63.7253 167.924 63.7253C172.361 63.7253 175.523 61.4833 176.383 57.7207L176.599 56.7659H186.492Z" fill="black"/>
<path d="M263.72 29.2612C251.796 29.2612 243.147 38.3589 243.147 50.8995C243.147 63.4402 251.991 72.702 263.72 72.702C275.449 72.702 284.37 63.3279 284.37 50.8995C284.37 38.4712 275.687 29.2612 263.72 29.2612ZM263.72 63.7253C258.488 63.7253 252.859 59.7121 252.859 50.8995C252.859 44.761 256.259 38.1559 263.72 38.1559C271.181 38.1559 274.581 44.761 274.581 50.8995C274.581 57.0381 271.181 63.7253 263.72 63.7253Z" fill="black"/>
</svg>
